<svg width="512" height="512" viewBox="0 0 512 512" fill="none" xmlns="http://www.w3.org/2000/svg" role="img" aria-label="Modern Manners and Mental Fortitude logo" preserveAspectRatio="xMidYMid meet">
  <defs>
    <linearGradient id="bg" x1="0" y1="0" x2="1" y2="1">
      <stop offset="0" stop-color="#223456"/>
      <stop offset="1" stop-color="#17253E"/>
    </linearGradient>
    <linearGradient id="glow" x1="0" y1="0" x2="1" y2="1">
      <stop offset="0" stop-color="#2D456D" stop-opacity="0.9"/>
      <stop offset="1" stop-color="#1B2A45" stop-opacity="0.05"/>
    </linearGradient>
    <linearGradient id="gold" x1="0" y1="0" x2="1" y2="0">
      <stop offset="0" stop-color="#E9C37A"/>
      <stop offset="1" stop-color="#C49540"/>
    </linearGradient>
  </defs>

  <rect x="0" y="0" width="512" height="512" rx="20" fill="url(#bg)"/>
  <rect x="0" y="0" width="512" height="512" rx="20" fill="url(#glow)"/>
  <rect x="2" y="2" width="508" height="508" rx="18" stroke="url(#gold)" stroke-width="4"/>

  <path d="M62 94 L256 50 L450 94" stroke="url(#gold)" stroke-width="6" stroke-linecap="round"/>
  <path d="M62 418 L256 462 L450 418" stroke="url(#gold)" stroke-width="6" stroke-linecap="round"/>

  <path d="M34 330 L90 296 L130 304 L186 174 L232 226 L292 22 L356 226 L418 152 L478 236 L478 374 L34 374 Z" fill="#0E182A"/>
  <path d="M38 334 L90 300 L130 308 L186 178 L232 230 L292 26 L356 230 L418 156 L474 240" stroke="url(#gold)" stroke-width="3.5" stroke-linecap="round" stroke-linejoin="round"/>

  <text x="256" y="302" text-anchor="middle" font-family="Playfair Display, Georgia, serif" font-size="54" font-weight="700" fill="#FFFFFF">Modern Manners</text>
  <text x="256" y="352" text-anchor="middle" font-family="Playfair Display, Georgia, serif" font-size="45" font-weight="700" fill="#F5E7C8">&amp; Mental Fortitude</text>
</svg>
